<svg width="50" height="50" version="1.1" viewBox="0 0 13.229 13.229" xmlns="http://www.w3.org/2000/svg">
 <path d="m3.5626 3.3073c-0.14088-1e-5 -0.25532 0.1144-0.25528 0.25528v6.104c-1.48e-5 0.14086 0.11442 0.25529 0.25528 0.25528h6.104c0.14088 4e-5 0.2553-0.1144 0.25528-0.25528v-6.104c3.7e-5 -0.14089-0.11439-0.25532-0.25528-0.25528zm0.25476 0.51005h5.5945v5.5945h-5.5945zm2.6681 0.15141-0.5302 0.68936h0.3576l-0.68936 0.89607h0.56431l-0.83923 1.0909h0.524l-0.91002 1.1834h1.526v1.432h0.25218v-1.432h1.526l-1.001-1.1834h0.55604l-0.92294-1.0909h0.57516l-0.75913-0.89607h0.35398z"/>
</svg>
