<svg width="50" height="50" version="1.1" viewBox="0 0 13.229 13.229" xmlns="http://www.w3.org/2000/svg">
 <path d="m6.89 4.3611-2.8179 0.18095-0.05574-3e-3 -4e-3 7e-3 -0.0052 3.5e-4 3.49e-4 8e-3 -0.70024 1.2803 2.4202 0.68447 0.83167-1.8337-1.2726-0.0734 1.6024-0.10328 1.247 0.0964-1.1238 0.0648 0.74364 1.6408 2.1661-0.61273-0.6271-1.1458 2.91e-4 -6e-3 -0.0041-3.5e-4 -0.0038-7e-3 -0.05085 3e-3zm-0.09868 0.64362-0.35963 0.81847-0.4714 1.0399-1.7118-0.48414v1.7067l2.5428 0.78233zm0.14709 0.0491v3.8142l2.5427-0.78233v-1.9437l-1.8581 0.52551-0.3761-0.82847z"/>
</svg>
