<svg width="50" height="50" version="1.1" viewBox="0 0 13.229 13.229" xmlns="http://www.w3.org/2000/svg">
 <path d="m4.8834 9.8399c-0.10948-0.10947-0.11778-0.15698-0.10589-0.60543 0.0099-0.37477 0.01274-0.38859 0.09526-0.47112 0.08483-0.0848 0.08612-0.085 0.57573-0.0948l0.49071-0.01-0.0158-4.0934-0.48001-8e-3c-0.47241-8e-3 -0.48129-0.01-0.56079-0.0892-0.10865-0.10865-0.11701-0.15672-0.10512-0.60467 0.0099-0.37489 0.01271-0.38856 0.09535-0.47111l0.08511-0.085h3.3186l0.08956 0.10024c0.08925 0.0999 0.08956 0.10165 0.08956 0.5003 0 0.61562-0.02276 0.63858-0.64458 0.65018l-0.41437 8e-3 -0.0079 2.0466-0.0079 2.0466 0.89575 0.02 0.08949 0.10024c0.08916 0.0999 0.08949 0.1017 0.08949 0.50079 0 0.41426-0.01814 0.4938-0.13404 0.58768-0.06019 0.0487-0.19824 0.0531-1.7111 0.0537l-1.6456 7e-4z"/>
</svg>
