<svg width="50" height="50" version="1.1" viewBox="0 0 13.229 13.229" xmlns="http://www.w3.org/2000/svg">
 <path d="m7.7764 9.8537c-0.48971-0.10636-0.9495-0.46955-1.1835-0.93483-0.42964-0.8544-0.06527-1.9251 0.79788-2.3447 0.29632-0.14402 0.47169-0.18311 0.80901-0.18034 0.71693 6e-3 1.3311 0.43473 1.6013 1.1181 0.25573 0.64669 0.09856 1.3694-0.40712 1.8722-0.42254 0.4201-1.0314 0.59681-1.6176 0.4695zm0.77478-0.83767c0.28409-0.12641 0.52512-0.45363 0.56413-0.76587 0.03979-0.31845-0.13995-0.70889-0.41204-0.89506-0.17208-0.11773-0.31734-0.15909-0.5589-0.15912-0.34483-6e-5 -0.6809 0.21407-0.83795 0.53386-0.06664 0.1357-0.0768 0.18936-0.0768 0.40585 0 0.21201 0.01104 0.27302 0.07349 0.40624 0.11503 0.24537 0.3199 0.42295 0.59177 0.51295 0.15866 0.0525 0.49577 0.0326 0.65628-0.0389zm-0.5867-0.32083c-0.0532-0.017-0.14701-0.0812-0.20846-0.1427-0.23627-0.23663-0.23489-0.59169 0.0032-0.82955 0.22003-0.2198 0.62557-0.21247 0.83231 0.015 0.15011 0.16519 0.19806 0.43513 0.11305 0.6364-0.11615 0.27498-0.44138 0.41595-0.74014 0.32081zm0.42647-0.18046c0.19768-0.11432 0.26859-0.37954 0.15536-0.58101-0.14849-0.2642-0.53526-0.3047-0.71596-0.075-0.14682 0.18665-0.13364 0.43048 0.03196 0.59099 0.15321 0.1485 0.34373 0.17192 0.52864 0.065zm-5.0836-1.4601v-2.6749h4.3797v1.819l-0.14399 0.0369c-0.55495 0.14223-1.0694 0.58961-1.2925 1.1239-0.12164 0.29137-0.15433 0.46026-0.1529 0.79 0.0024 0.54683 0.17031 0.95738 0.55727 1.3624l0.20789 0.2176h-3.5555zm0.25178-2.88c0.0064-6e-3 0.82858-0.19366 1.8272-0.41692s1.8375-0.4125 1.8641-0.42053c0.04475-0.0135 0.04851 0.0189 0.04851 0.41692v0.43152h-1.8757c-1.0316 0-1.8705-5e-3 -1.8641-0.011z"/>
</svg>
