<svg width="50" height="50" version="1.1" viewBox="0 0 13.229 13.229" xmlns="http://www.w3.org/2000/svg">
 <path d="m5.7057 9.8723c-0.19476-0.025-0.38041-0.0524-0.41256-0.0609-0.03215-8e-3 0.44436-0.0172 1.0589-0.0195 0.61455-2e-3 1.2566-0.0207 1.4268-0.0411 0.35225-0.0421 0.86642-0.20069 1.0572-0.32602 0.14314-0.094 0.15544-0.0874 0.07248 0.0392-0.20017 0.3055-0.95506 0.46459-2.1714 0.45765-0.37249-2e-3 -0.8366-0.0244-1.0314-0.0494zm-0.35804-0.29206c-0.25932-0.014-0.587-0.0511-0.72819-0.0825-0.43092-0.0959-0.61817-0.28532-0.41414-0.419 0.10044-0.0658 0.45204-0.14971 0.61679-0.14718 0.0975 1e-3 0.09562 4e-3 -0.03438 0.0448-0.18136 0.0571-0.29223 0.11829-0.29223 0.16138 0 0.11022 0.68722 0.22898 1.5069 0.26042 1.0547 0.0404 2.4876-0.15224 2.6354-0.35439 0.03785-0.0518 0.04282-0.0516 0.06346 2e-3 0.03613 0.0942-0.13298 0.21837-0.42047 0.30882-0.6791 0.21364-1.6986 0.292-2.9331 0.22544zm0.16206-0.7796c-0.18198-0.0443-0.24357-0.20826-0.11268-0.29993 0.09652-0.0676 0.23301-0.07 0.23301-4e-3 0 0.0324 0.05451 0.0576 0.15832 0.0732 0.19365 0.029 1.0371-0.01 1.4574-0.0675 0.2973-0.0407 0.30648-0.0399 0.25204 0.0202-0.10192 0.11263-0.40156 0.23313-0.66453 0.26725-0.26128 0.0339-1.1974 0.0416-1.3236 0.0108zm0.26445-0.59929c-0.58489-0.0838-0.80749-0.28984-0.46438-0.42984 0.09915-0.0405 0.10301-0.0388 0.08831 0.0381-0.01383 0.0724 0.0023 0.0842 0.16156 0.11833 0.33886 0.0727 1.3554 0.03 2.0129-0.0845l0.10314-0.018-0.11711 0.10295c-0.13653 0.12003-0.5212 0.22278-1.0376 0.27717-0.37048 0.039-0.44765 0.0386-0.7468-4e-3zm2.3657-0.13588c0.19414-0.15815 0.45762-0.42491 0.51886-0.52533 0.16102-0.26406 0.0013-0.49511-0.39256-0.56795l-0.14349-0.0265 0.2026-0.061c0.34314-0.10339 0.58922-0.0265 0.71702 0.22417 0.19033 0.37326-0.04576 0.70306-0.66508 0.92908-0.32214 0.11757-0.35208 0.12105-0.23735 0.0276zm-2.7293-0.51553c-0.29055-0.0307-0.54483-0.10233-0.6673-0.18811-0.10183-0.0713-0.09799-0.20498 0.0079-0.27435 0.0936-0.0613 0.54753-0.15102 0.75863-0.1499 0.13624 7.8e-4 0.13558 1e-3 -0.07154 0.067-0.11498 0.0365-0.23617 0.0962-0.2693 0.13286-0.05776 0.0638-0.05693 0.0684 0.01997 0.11227 0.11958 0.0682 1.9667 0.0568 2.3665-0.0146 0.16073-0.0287 0.29752-0.0473 0.30398-0.0415 0.0065 6e-3 -0.04805 0.0502-0.12114 0.0986-0.34123 0.22582-1.4577 0.34941-2.3277 0.25766zm1.5091-0.54673c0.01212-0.0473 0.03043-0.15772 0.04069-0.24543 0.01714-0.14658 0.0073-0.1745-0.12169-0.34535-0.16464-0.21806-0.22854-0.362-0.26115-0.58826-0.0462-0.32056 0.16864-0.58886 0.71763-0.89621 0.15262-0.0854 0.32391-0.17265 0.38064-0.19378 0.11929-0.0444 0.13424-0.0607-0.25527 0.27709-0.28921 0.25077-0.44953 0.47696-0.44953 0.63422 0 0.0647 0.05641 0.20071 0.14246 0.34337 0.23504 0.38971 0.22006 0.62573-0.05903 0.92959-0.12785 0.1392-0.15272 0.15484-0.13475 0.0848zm-0.72868-0.38722c-0.36996-0.39117-0.55921-0.8094-0.4952-1.0943 0.07083-0.31523 0.30707-0.58755 0.87632-1.0101 0.20992-0.15583 0.40816-0.31319 0.44053-0.34968 0.1058-0.11926 0.20099-0.38409 0.22344-0.62161l0.02202-0.23297 0.06888 0.15472c0.046 0.10331 0.06887 0.22894 0.06885 0.37818-4.2e-5 0.39183-0.155 0.61178-0.83624 1.187-0.36514 0.3083-0.48277 0.4583-0.4819 0.61448 1e-3 0.18601 0.09517 0.56178 0.2163 0.86344 0.06444 0.1605 0.10613 0.29182 0.09265 0.29182-0.01349 0-0.10153-0.0814-0.19565-0.18094z"/>
</svg>
