<svg width="50" height="50" version="1.1" viewBox="0 0 13.229 13.229" xmlns="http://www.w3.org/2000/svg">
 <path d="m4.6216 9.8637c-0.20874-0.12728-0.19844 0.0384-0.19844-3.1928 0-3.2661 0.0149-3.0546-0.21592-3.0546-0.13192 0-0.20616 0.0549-0.23626 0.17486-0.0235 0.0938 0.0714 0.2377 0.16613 0.25188 0.15972 0.0239 0.21282 0.25421 0.0691 0.29982-0.0843 0.0268-0.25418-0.0331-0.33343-0.11741-0.0875-0.0931-0.16057-0.2755-0.16057-0.4007 0-0.14484 0.12028-0.36545 0.24412-0.44775l0.10503-0.0698 2.3987 1.2e-4c2.2923 1.1e-4 2.4029 3e-3 2.4939 0.0582 0.20724 0.12637 0.19844 4.6e-4 0.19844 2.839v2.5634l0.11591 0.0747c0.37322 0.24061 0.31429 0.89135-0.09474 1.0463-0.05866 0.0222-0.79905 0.0329-2.2719 0.0328-2.0831-1.1e-4 -2.1893-3e-3 -2.2801-0.0582zm4.1253-0.25416c0.19183-0.0669 0.23994-0.32297 0.09054-0.48199l-0.06673-0.071h-3.3626l0.02526 0.0695c0.03216 0.0885 0.03094 0.32229-0.0023 0.43274l-0.02554 0.085h1.6215c1.107 0 1.6527-0.0109 1.7198-0.0343zm-0.36724-2.8558v-0.13909h-3.0292v0.27819h3.0292zm0-0.98911v-0.13909h-3.0292v0.27818h3.0292zm0-0.98911v-0.1391h-3.0292v0.27819h3.0292z"/>
</svg>
