<svg width="50" height="50" version="1.1" viewBox="0 0 13.229 13.229" xmlns="http://www.w3.org/2000/svg">
 <path d="m4.4697 9.8588c-0.55512-0.22369-0.62595-0.76305-0.15469-1.1779 0.26333-0.2318 0.69359-0.3492 1.0119-0.27613l0.15746 0.0361v-4.5306l1.8246-0.29323c1.0036-0.16128 1.8455-0.3006 1.871-0.30961 0.0368-0.013 0.0463 0.53154 0.0463 2.6434 0 2.6221-1e-3 2.662-0.0774 2.8197-0.15708 0.32451-0.55963 0.54-1.0168 0.54433-0.79997 8e-3 -1.1482-0.69916-0.60572-1.2295 0.2478-0.24227 0.69977-0.37964 1.0326-0.31384l0.18576 0.0367v-1.5322c0-0.8427-9e-3 -1.5322-0.0202-1.5322-0.0558 0-2.7067 0.4911-2.7306 0.50586-0.0153 9e-3 -0.0278 0.90289-0.0278 1.9854 0 1.914-2e-3 1.9726-0.0766 2.1265-0.16087 0.3323-0.51338 0.53679-0.96075 0.55732-0.21274 0.01-0.32031-4e-3 -0.45898-0.0602z"/>
</svg>
