<svg width="50" height="50" version="1.1" viewBox="0 0 13.229 13.229" xmlns="http://www.w3.org/2000/svg">
 <path d="m5.4352 4.5979v1.9245l1.6729 1.0494c0.15978-0.28804 0.25148-0.61898 0.25148-0.97171 0-1.0804-0.85467-1.9588-1.9243-2.0022zm-0.25825 0.0274c-1.044 0.0706-1.8696 0.93748-1.8696 1.9995 0 0.24801 0.0472 0.48448 0.12952 0.70373l1.7401-0.76318zm2.5561 1.1329v0.32668h2.1888v-0.32668zm0 0.83166v0.32668h2.1888v-0.32668zm-2.4284 0.15837-1.7803 0.78088c0.33084 0.65327 1.007 1.1021 1.7894 1.1021 0.677 0 1.2745-0.33636 1.6378-0.84999zm2.4284 0.66027v0.32668h2.1888v-0.32668z"/>
</svg>
