<svg width="50" height="50" version="1.1" viewBox="0 0 13.229 13.229" xmlns="http://www.w3.org/2000/svg">
 <path d="m7.2174 5.0745v0.16607l-0.38845 0.3489h-0.13291v0.11944l-0.25073 0.2252h-0.17364v0.21672h0.21671v-0.14266l0.1941-0.17449-0.54077 1.4163-0.50546-1.4548v-0.20579h-0.22569v0.0379h-0.21336v-0.0379h-0.22561v0.22557h0.07928l0.71656 2.0653v0.21489h0.22557v-0.0348h0.26392v0.0348h0.22565v-0.16947l-0.0018-0.01 0.80226-2.1006h0.07754v-0.2257h-0.22549v0.038h-0.21328v-9e-3l0.36471-0.32778h0.14767v-0.21671zm-3.1961 0.44249v0.0474c-0.0013 0-0.0023 1.4e-4 -0.0037 2.4e-4 -0.10746 0.0116-0.21461 0.0517-0.31803 0.11916-0.14092 0.0909-0.23897 0.21657-0.29118 0.37344-0.01468 0.0439-0.02541 0.0881-0.03179 0.13234h-0.05011v0.22553h0.04947c0.01541 0.11773 0.05659 0.22668 0.12288 0.32443 0.06925 0.10242 0.1599 0.1836 0.2697 0.24159v0.0877h0.21522l0.24927 0.0906v0.0926h0.13885v0.20842h0.0033c-0.01535 0.0201-0.03491 0.0355-0.05877 0.0467v-0.0197h-0.22561v0.0301c-0.02495-7e-3 -0.04609-0.0168-0.06334-0.0293-0.02572-0.0182-0.04653-0.0476-0.06225-0.0879h0.01003v-0.22553h-0.22557v0.0634l-0.21663 0.027v-0.0304h-0.22565v0.22553h0.06989c0.04788 0.22092 0.15448 0.39051 0.31714 0.50466 0.11466 0.0804 0.24786 0.12818 0.39622 0.14229v0.0479h0.22565v-0.0506l0.02932-4e-3 0.01225-3e-3c0.13552-0.0226 0.25759-0.0775 0.36261-0.16336 0.10543-0.0863 0.18204-0.19562 0.22719-0.32459 0.01704-0.0477 0.02974-0.0977 0.03782-0.14917h0.04441v-0.22553h-0.04397c-0.03243-0.22879-0.14901-0.40625-0.3474-0.52856v-0.0935h-0.2104l-0.25069-0.0935v-0.0865h-0.17906c-0.0052-6e-3 -0.01015-0.0116-0.01464-0.0177l9.71e-4 -0.22189c0.0099-0.0122 0.02219-0.0222 0.0366-0.0302v0.0215h0.22557v-0.0195c0.04987 0.0206 0.08865 0.0529 0.11661 0.0972l-1e-3 0.22557h0.22545v-0.0559l0.20733-0.0281v0.0334h0.22545v-0.22557h-0.05226c-0.04827-0.19243-0.15377-0.35204-0.31387-0.47485-0.12077-0.0925-0.25777-0.1496-0.4077-0.16999v-0.0499zm4.4875 3e-3v0.0533c-0.30829 0.0221-0.57661 0.14501-0.7983 0.3656-0.22169 0.22065-0.34619 0.48744-0.37021 0.79377h-0.05371v0.22864h0.05436c0.02796 0.30442 0.15443 0.56856 0.37611 0.78621 0.22148 0.21742 0.48752 0.33843 0.79166 0.36046v0.0472h0.22549v-0.0487c0.1898-0.0194 0.36741-0.0798 0.52924-0.17995v0.17178h0.22561v-0.0443h0.20401v0.0443h0.22869v-0.22553h-0.04716l0.0028-0.93982h0.04453v-0.2257h-0.22869v0.0473h-0.95248v-0.0473h-0.22869v0.22558h0.0379v0.21663h-0.0379v0.22864h0.22869v-0.041h0.33644c-0.09752 0.0954-0.21064 0.15476-0.34279 0.17955v-0.0324h-0.22553v0.0356c-0.14712-0.0197-0.27268-0.0812-0.3821-0.18719-0.10876-0.10538-0.17366-0.22725-0.19702-0.3713h0.02775v-0.22868h-0.03167c0.02185-0.14683 0.08648-0.27199 0.19677-0.38125 0.1104-0.10959 0.2372-0.17307 0.38627-0.19306v0.0356h0.22553v-0.0302c0.10309 0.0182 0.19798 0.06 0.28292 0.12446v0.11733h0.22869v-0.0406l0.31771 2e-3v0.0384h0.22869v-0.22562h-0.09982c-0.10549-0.17337-0.2453-0.3153-0.41587-0.42242-0.16513-0.10369-0.34728-0.16538-0.54231-0.18323v-0.0543zm-4.4875 0.18699v0.035h0.22557v-0.0347c0.11839 0.0179 0.22698 0.0649 0.32386 0.13991 0.12554 0.0964 0.20789 0.21595 0.25036 0.36398h-0.02585v0.0514l-0.20733 0.0288v-0.0296h-0.07236c-0.04844-0.12794-0.13845-0.20914-0.26857-0.24232v-0.0608h-0.22561v0.0559c-0.09462 0.0231-0.16003 0.0826-0.1918 0.17468h-0.07034v0.22558h0.06977c0.02261 0.0677 0.06379 0.12111 0.12292 0.15944v0.0838h0.20187l0.25922 0.0966v0.0834h0.17364c0.14529 0.0967 0.23026 0.22716 0.25821 0.3967h-0.04012v0.22549h0.04045c-6e-3 0.0355-0.01518 0.0695-0.02758 0.10181-0.0819 0.22396-0.24473 0.3548-0.49988 0.40046-4.14e-4 4e-5 -8.38e-4 2e-5 -0.0013 1.3e-4v-0.0332h-0.22561v0.0391c-0.1199-0.0146-0.22599-0.0541-0.31593-0.11729-0.12336-0.0873-0.20824-0.21871-0.25324-0.39104h0.01153v-0.0539l0.21663-0.027v0.021h0.06933c0.038 0.12958 0.11056 0.21244 0.21748 0.24734 0.01748 5e-3 0.03552 9e-3 0.0542 0.0128v0.0524h0.22561v-0.0578c0.10626-0.0252 0.18019-0.0917 0.21651-0.19495h0.06767v-0.22553h-0.06811c-0.01599-0.0417-0.04058-0.0781-0.07394-0.10893v-0.10273h-0.19354l-0.26764-0.0998v-0.0802h-0.19346c-0.07747-0.0464-0.14234-0.10832-0.19305-0.18505-0.04958-0.0746-0.08171-0.1561-0.09614-0.2432h0.04065v-0.22558h-0.03713c5e-3 -0.0303 0.01228-0.0596 0.02156-0.0875 0.03823-0.1145 0.10692-0.20897 0.20434-0.28054 0.08217-0.0605 0.17519-0.0988 0.27718-0.1141zm4.4876 4e-3v0.0373h0.22549v-0.0332c0.16358 0.0174 0.31803 0.0702 0.45956 0.15758 0.14656 0.0902 0.26778 0.20937 0.36103 0.35439h-0.30893v-0.0473h-0.14363c-0.10746-0.0836-0.23098-0.13654-0.36802-0.15766v-0.0571h-0.22549v0.0518c-0.18686 0.0211-0.34946 0.0999-0.48411 0.23463-0.13467 0.13461-0.2143 0.29623-0.23722 0.48095h-0.05557v0.22865h0.05622c0.02489 0.18296 0.10616 0.34166 0.24203 0.47238 0.13542 0.1303 0.29616 0.20668 0.47865 0.22743v0.0487h0.22549v-0.0535c0.20007-0.0287 0.36827-0.12208 0.50106-0.27807h0.11487v-0.22869h-0.22569v0.0506h-0.38408v-0.0506h-0.05036v-0.21663h0.05036v-0.0379h0.9526v0.0379h0.04376c-4.35e-4 0.0772-0.0014 0.23326-0.0026 0.46833v0.47153h-0.04101v0.041h-0.20401v-0.26217h-0.22565v0.10952c-0.15987 0.11403-0.33744 0.1826-0.52921 0.20422v-0.0358h-0.22553v1.7e-4h4.1e-5v0.0378c-0.26722-0.0215-0.50074-0.12916-0.69435-0.32018-0.19342-0.19062-0.3052-0.42122-0.33251-0.68594h0.03013v-0.22868h-0.03102c0.02381-0.26696 0.13413-0.50019 0.32883-0.69399 0.19493-0.19389 0.42973-0.30393 0.69892-0.32741zm-3.3114 0.0565h0.21336v0.0473h0.08567l0.5303 1.535v0.22424h0.22869v-0.22561h-0.0033l0.58571-1.5336h0.08389v-0.0473h0.2134v0.0393l-0.78479 2.0627h-0.09327v0.0506h-0.26388v-0.0506h-0.08247l-0.71332-2.0563z"/>
</svg>
