<svg width="50" height="50" version="1.1" viewBox="0 0 13.229 13.229" xmlns="http://www.w3.org/2000/svg">
 <path d="m8.9575 4.95v0.0702c0.1013 4e-3 0.17228 0.0151 0.21252 0.0337 0.04055 0.0188 0.0605 0.0554 0.0605 0.10973 0 0.0152-9.91e-4 0.0284-0.0028 0.0395-0.0018 0.0112-0.0065 0.0239-0.014 0.038-0.0076 0.0141-0.01882 0.032-0.03373 0.0536-0.01498 0.0215-0.03657 0.0501-0.06464 0.0855l-0.45289 0.57667-0.39366-0.5878c-0.06027-0.0881-0.08991-0.15576-0.08991-0.20242 0-0.0356 0.01857-0.0679 0.05618-0.097 0.03738-0.0291 0.10583-0.0455 0.20533-0.0494v-0.0702h-1.1815v0.0702c0.06371 4e-3 0.1218 0.0127 0.17447 0.0268 0.05253 0.0141 0.10458 0.0386 0.1561 0.0732 0.05149 0.0348 0.10501 0.0834 0.16033 0.14609 0.05529 0.0629 0.11765 0.14489 0.18692 0.24615l0.50344 0.73681-0.60176 0.76223c-0.05253 0.0655-0.103 0.12412-0.15197 0.17559-0.04873 0.0516-0.09801 0.0947-0.1475 0.12961-0.05003 0.0346-0.10172 0.062-0.15605 0.0828-0.05455 0.0207-0.11265 0.0328-0.17461 0.0366v0.0702h0.9056v-0.0702c-0.0957-4e-3 -0.16031-0.0187-0.19401-0.0452-0.03367-0.0261-0.05064-0.0588-0.05064-0.0983 0-0.0131 5.19e-4 -0.0253 0.0014-0.0366 8.66e-4 -0.0112 0.0052-0.0243 0.01259-0.0394 0.0077-0.0148 0.01936-0.0337 0.03523-0.0564 0.01592-0.0224 0.03892-0.0524 0.06896-0.09l0.53698-0.68613 0.43316 0.65522c0.02629 0.0413 0.04775 0.074 0.06464 0.0986 0.01693 0.0243 0.02956 0.0445 0.03791 0.0604 0.0085 0.0161 0.01363 0.0281 0.01541 0.0365 0.0022 9e-3 0.0029 0.0176 0.0029 0.0268 0 0.0546-0.01657 0.0967-0.04923 0.1267-0.03285 0.0297-0.10081 0.0458-0.20383 0.0477v0.0702h1.0966v-0.0702c-0.05784-2e-3 -0.10804-9e-3 -0.15013-0.021-0.04216-0.0121-0.08538-0.0361-0.12942-0.0718-0.04421-0.0357-0.09192-0.0875-0.14346-0.15606-0.05152-0.0684-0.11665-0.16067-0.19528-0.27706l-0.54858-0.81836 0.50616-0.64962c0.10693-0.13491 0.18643-0.22488 0.2392-0.27002 0.04878-0.0432 0.09974-0.0778 0.15342-0.104 0.05327-0.0263 0.1231-0.0422 0.20946-0.0479v-0.0702zm-5.6502 0.13134v0.6018h0.0703c6e-3 -0.09 0.021-0.16356 0.0463-0.22083 0.0253-0.057 0.0596-0.10213 0.10279-0.13496 0.0431-0.0328 0.0943-0.0554 0.15332-0.0675 0.0591-0.0122 0.12691-0.0184 0.20388-0.0184h0.30652v1.9546c0 0.0844-0.0061 0.15101-0.01841 0.19974-0.01219 0.0487-0.02937 0.0857-0.05191 0.11091-0.02249 0.0255-0.0507 0.042-0.08427 0.0494-0.03358 7e-3 -0.07319 0.0112-0.11833 0.0112h-0.08982v0.0702h1.0828v-0.0702h-0.08719c-0.04507 0-0.08424-3e-3 -0.11796-0.01-0.03403-7e-3 -0.06195-0.0218-0.0846-0.0463-0.02237-0.0243-0.03984-0.0614-0.05181-0.11095-0.01243-0.0499-0.01841-0.11762-0.01841-0.20397v-1.9547h0.35997c0.14436 0 0.25353 0.0333 0.3277 0.0999 0.07398 0.0666 0.12125 0.1805 0.14196 0.34174h0.04218v-0.6018zm1.9349 0.64192v0.0702h0.08996c0.10693 0 0.18285 0.0254 0.22797 0.0761 0.03182 0.0375 0.04773 0.13766 0.04773 0.30083v1.6594c0 0.12363-0.0075 0.20615-0.02255 0.24733-0.0075 0.0226-0.02051 0.0421-0.03927 0.0591-0.01886 0.0169-0.03995 0.0304-0.06323 0.0408-0.02367 0.0104-0.04838 0.0183-0.0746 0.024-0.02639 6e-3 -0.05162 8e-3 -0.07605 8e-3h-0.08996v0.0701h1.9687l0.22224-0.64103h-0.07601c-0.08435 0.16134-0.16404 0.27841-0.23901 0.35138-0.03196 0.03-0.06174 0.0551-0.09005 0.0745-0.028 0.0197-0.06045 0.0352-0.09691 0.0465-0.03661 0.0111-0.0801 0.0189-0.13083 0.0225-0.05063 4e-3 -0.11244 6e-3 -0.18565 6e-3h-0.43316c-0.05436 0-0.09557-3e-3 -0.12359-8e-3 -0.02836-6e-3 -0.0489-0.0182-0.06196-0.0377-0.0132-0.0198-0.02058-0.0483-0.02241-0.0859-2e-3 -0.0376-0.0028-0.0883-0.0028-0.15206v-0.84359h0.55967c0.08252 0 0.14815 6e-3 0.19678 0.0184 0.0487 0.0122 0.08678 0.0329 0.11396 0.062 0.02711 0.0291 0.04683 0.0679 0.05895 0.11673 0.01239 0.0488 0.02313 0.10977 0.03232 0.18269h0.07046v-0.88873h-0.07046c-0.0036 0.0637-0.01139 0.11904-0.0225 0.16587-0.01111 0.0469-0.03154 0.0853-0.0606 0.11551-0.02903 0.0301-0.06871 0.0523-0.11941 0.0674-0.05058 0.0149-0.11712 0.0225-0.19965 0.0225h-0.55971v-1.0097h0.70036c0.08608 0 0.15694 4e-3 0.21228 0.0127 0.05541 9e-3 0.10099 0.0278 0.13646 0.0576 0.03572 0.03 0.06427 0.0728 0.08582 0.12792 0.0216 0.0553 0.04156 0.129 0.06036 0.22078h0.04505v-0.55957z"/>
</svg>
