<svg width="50" height="50" version="1.1" viewBox="0 0 13.229 13.229" xmlns="http://www.w3.org/2000/svg">
 <path d="m6.5891 5.0824c-0.84624 0-1.5323 0.686-1.5323 1.5323 0 0.84613 0.68604 1.5322 1.5323 1.5322 0.84624 0 1.5321-0.68602 1.5321-1.5322 0-0.84628-0.68588-1.5323-1.5321-1.5323zm-0.04798 0.21172c0.06467-9.065e-4 0.1135 0.012298 0.1213 0.026313-0.04151 0.068066-0.10551 0.045403-0.11253 0.1139-7e-3 0.06879-0.11643 0.15774-0.10275 0.18545 0.0138 0.027586 8e-6 0.145-0.09604 0.041956-0.09609-0.103-0.19232-0.13796-0.1852-0.20671 0.0017-0.0137 0.09934-0.035128 0.10093-0.059134 0.08185-0.076108 0.19114-0.10061 0.27429-0.10178zm0.70864 0.14559c0.03974 0.00352 0.13231 0.057367 0.21216 0.14139-0.06148 0.22845-0.20558 0.20121-0.20558 0.20121s-0.10536-0.00266-0.09147-0.091874l0.10954-0.0732s-0.04608-0.11804-0.03828-0.17591c0.0033-0.00161 0.0079-0.00212 0.01362-0.00162zm-1.2553 0.00861 0.03436 0.14373s-0.07541 0.020797-0.11637 0.00699c-0.04139-0.013679-0.06217-0.013662-0.06217-0.013662l-0.05461 0.075343s-0.02096 0.048164-0.02769 0.075585c-0.0068 0.027483 0.01362 0.06835 0.01362 0.06835s0.09596 0.00699 0.09596-0.020493-0.0135-0.040986-0.0135-0.040986l-0.01378-0.04818s0.06216-0.034392 0.22627-0.020816c0.16465 0.013886 0.10314 0.13037 0.17191 0.15808 0.06867 0.027483-0.0552 0.12335-0.08258 0.17809-0.02738 0.054924-0.06851-0.068633-0.06851-0.068633s0.04112-0.047361-0.02736-0.06164c-0.06865-0.013307-0.11401 0.12352-0.0793 0.11685 0.03413-0.00681 0.07239 0.036909 0.0654 0.071179-0.0069 0.034333-0.0069 0.031558-0.04119 0.10699-0.03427 0.075392-0.10877 0.13124-0.10877 0.13124s-0.03505-0.021238-0.01479 0.020048c0.02103 0.041059-0.0068 0.13692-0.0068 0.16451 0 0.027276-0.08237-0.048022-0.09575-0.11685-0.01403-0.068107-0.09439-0.00867-0.12174-0.00178-0.02748 0.00699-0.0775-0.011793-0.09074-0.045836-0.01403-0.034602-0.13759 0.068436-0.17199 0.088924-0.03417 0.020633-0.02024 0.075583 0.03436 0.0481 0.05484-0.027483 0.10278-0.00687 0.08921 0.048423-0.01358 0.054531-0.06826 0.020462-0.06164 0.054526 0.0068 0.034271 0.06165 0.068595 0.07522 0.11677 0.0138 0.047847 0.14441 0.00687 0.18545-0.013824 0.04106-0.020798 0.1577-0.041142 0.1713 0.013824 0.01422 0.054862 0.14427 0.075227 0.19224 0.088762 0.04816 0.013907 0.14414 0.020721 0.19923 0.075666 0.05449 0.054759-0.04126 0.15772-0.04838 0.19212-0.0068 0.034271-0.04804 0.11668-0.07542 0.17142-0.02738 0.054697-0.04101 0.075408-0.0755 0.10279-0.03437 0.027814-0.05477 0.075666-0.05477 0.075666l-0.0069 0.11641s0.01344 0.096243 0.03403 0.1306c0.02061 0.034105-0.0734 0.23856-0.0734 0.23856-0.05964-0.011817-0.09276-0.081016-0.11346-0.13557-0.02069-0.055193-0.04798-0.084286-0.04107-0.14592 0.0069-0.061733-0.05328-0.094368-0.07361-0.12854-0.02047-0.034747-0.0481-0.082481-0.0481-0.11677 0-0.034478-0.07534-0.082456-0.07534-0.082456s-0.13725-0.061688-0.15784-0.088964c-0.02059-0.027483-0.0414-0.14439-0.04802-0.19224-7e-3 -0.047847 0.02041-0.17118 0.02041-0.17118s0.05542-0.041727 0.02061-0.075626c-0.03437-0.034292-0.0409-0.1236-0.0409-0.1236l-0.06188-0.068431s-0.04818-0.068635-0.05497-0.10303c-0.0069-0.03423 2e-5 -0.054789 0.0069-0.089287 0.0068-0.034498-0.0137-0.095881-0.0137-0.13015 0.25633-0.6283 0.68605-0.77509 0.68605-0.77509zm1.7452 0.43977c3.21e-4 -4.167e-4 0.0011 0.00172 0.0023 0.00707 0.09267 0.15919 0.22832 0.58358 0.17813 0.65957-0.03009-0.013597-0.05542-0.024939-0.05542-0.024939h-0.18294l0.10966 0.12813s0.05307 0.077782 0.12825 0.072877c-0.04954 0.57366-0.52837 0.94211-0.52837 0.94211-0.07299-0.073198-0.0365-0.13694-0.0365-0.13694l0.02061-0.10986 0.01152-0.18512s-1.5e-5 -0.19187-0.18306-0.10069c-0.19654 0.050185-0.11462 0.050181-0.31321 0.063985-0.19882 0.013679-0.16596-0.40561-0.16596-0.40561 0-0.62776 0.48148-0.154 0.48148-0.154 0.27464 0.18267 0.31111-0.15149 0.31111-0.15149l0.20117-0.072715 0.01827-0.091713-0.02931-0.12769-0.29224-0.12061s-0.02803 0.095023 0.04693 0.2116c0 0-0.02497 0.13261-0.08658 0.098463l-0.16936-0.085205s-0.05695-0.02463-0.14842 0.030315c-0.0916 0.054759-0.2466-0.00255-0.2466-0.00255s0.0125-0.09201 0.10885-0.13969l0.0787-0.052101s-0.02065-0.093962-0.0026-0.16697c0.01805-0.073053 0.05031-0.00912 0.1234-0.064025 0.07301-0.054655 0.1234 0.1074 0.2331 0.089166 0.10964-0.018357 0.05499-0.036594 0.12833-0.073079 0.0733-0.036547 0.12805 0.073079 0.12805 0.073079l0.14604 0.01827c-7.6e-5 -1.78e-4 -0.01756-0.12671-0.01532-0.12963zm-3.1482 0.014834-1.2842 0.5966v0.23015l1.2842 0.59676v-0.28371l-0.97125-0.42538v-0.00538l0.97125-0.42534zm4.0463 0v0.28371l0.99247 0.42534v0.00538l-0.99247 0.42538v0.28371l1.2841-0.58871v-0.24612z"/>
</svg>
