<svg width="50" height="50" version="1.1" viewBox="0 0 13.229 13.229" xmlns="http://www.w3.org/2000/svg">
 <path d="m3.5626 3.3073c-0.14088-1e-5 -0.25532 0.1144-0.25528 0.25528v6.104c-1.48e-5 0.14086 0.11442 0.25529 0.25528 0.25528h6.104c0.14088 4e-5 0.2553-0.1144 0.25528-0.25528v-6.104c3.7e-5 -0.14089-0.11439-0.25532-0.25528-0.25528zm0.25476 0.51005h5.5945v5.5945h-5.5945zm2.2763 0.19585v0.22169h0.5209v-0.22169zm0.5209 0.35192v0.21497h0.5209v-0.21497zm-0.5209 0.32143v0.21497h0.5209v-0.21497zm0.5209 0.35192v0.21497h0.5209v-0.21497zm-0.5209 0.33383v0.21497h0.5209v-0.21497zm0.5209 0.3452v0.21497h0.5209v-0.21497zm0 0.39067c-0.36879 0-0.54415 0.29878-0.54415 0.66766l-0.12351 1.1183c0 0.36888 0.29888 0.66818 0.66766 0.66818 0.36874 0 0.66766-0.2993 0.66766-0.66818l-0.12299-1.1183c1.566e-4 -0.36879-0.17586-0.66766-0.54467-0.66766zm-0.22066 1.2268h0.44235v0.93379h-0.44235z"/>
</svg>
