<?xml version="1.0" encoding="UTF-8" standalone="no"?>
<!-- Created with Inkscape (http://www.inkscape.org/) -->

<svg
   xmlns:dc="http://purl.org/dc/elements/1.1/"
   xmlns:cc="http://creativecommons.org/ns#"
   xmlns:rdf="http://www.w3.org/1999/02/22-rdf-syntax-ns#"
   xmlns:svg="http://www.w3.org/2000/svg"
   xmlns="http://www.w3.org/2000/svg"
   xmlns:sodipodi="http://sodipodi.sourceforge.net/DTD/sodipodi-0.dtd"
   xmlns:inkscape="http://www.inkscape.org/namespaces/inkscape"
   width="50"
   height="50"
   viewBox="0 0 13.229166 13.229167"
   version="1.1"
   id="svg8"
   inkscape:version="0.92.2 (5c3e80d, 2017-08-06)"
   sodipodi:docname="calendar.svg">
  <defs
     id="defs2" />
  <sodipodi:namedview
     id="base"
     pagecolor="#ffffff"
     bordercolor="#666666"
     borderopacity="1.0"
     inkscape:pageopacity="0.0"
     inkscape:pageshadow="2"
     inkscape:zoom="5.6"
     inkscape:cx="95.414011"
     inkscape:cy="45.972539"
     inkscape:document-units="px"
     inkscape:current-layer="layer1"
     showgrid="false"
     units="px"
     inkscape:window-width="1920"
     inkscape:window-height="1000"
     inkscape:window-x="-11"
     inkscape:window-y="-11"
     inkscape:window-maximized="1" />
  <metadata
     id="metadata5">
    <rdf:RDF>
      <cc:Work
         rdf:about="">
        <dc:format>image/svg+xml</dc:format>
        <dc:type
           rdf:resource="http://purl.org/dc/dcmitype/StillImage" />
        <dc:title></dc:title>
      </cc:Work>
    </rdf:RDF>
  </metadata>
  <g
     inkscape:label="Layer 1"
     inkscape:groupmode="layer"
     id="layer1"
     transform="translate(0,-283.77081)">
    <path
       style="fill:#000000;stroke-width:1"
       d="m 5.3078262,287.23421 c -0.4162949,0 -0.4461029,0.0289 -0.4461029,0.43338 v 0.002 h -0.489869 c -0.4688859,0 -0.4975439,0.004 -0.6692835,0.0909 -0.1909727,0.0967 -0.3053213,0.23428 -0.3608206,0.4341 -0.047416,0.17077 -0.045249,4.63866 0.0025,4.82775 0.046166,0.18322 0.189181,0.35585 0.3682455,0.44448 0.1386566,0.0687 0.1745645,0.0699 1.9767926,0.0699 h 0.8074318 1.0281041 0.014833 c 1.803003,-2e-5 1.8389109,-0.002 1.977626,-0.0699 0.1791395,-0.0886 0.3222878,-0.26126 0.3684372,-0.44448 0.031,-0.12321 0.041999,-2.03041 0.03325,-3.41779 -4.333e-4,-1.41382 -0.010333,-1.48871 -0.1697896,-1.68221 -0.1744729,-0.21166 -0.3144963,-0.25274 -0.861798,-0.25274 H 8.4053885 l -0.011583,-0.005 c -0.00992,-0.23834 -0.022916,-0.29127 -0.086966,-0.35533 -0.067749,-0.0677 -0.106707,-0.0752 -0.3874786,-0.0752 -0.2807799,0 -0.3197711,0.007 -0.387487,0.0752 -0.064083,0.0641 -0.076999,0.11699 -0.086891,0.35533 l -0.011667,0.005 h -0.8229316 -0.82299 v 0.0129 c 0,0.23002 -0.00992,-0.27409 -0.079832,-0.35533 -0.077249,-0.0897 -0.090199,-0.0928 -0.3995534,-0.0928 z m -1.4377241,1.77035 c 1.2623429,-0.18809 2.6265097,0 2.6265097,0 h 0.1169819 8.333e-4 c 0,0 1.3994579,0.20358 2.7423332,0 0.0105,0.45911 0,1.30465 0,1.30465 v 0.75567 l 0.0025,2.7e-4 v 0.17224 1.66739 l -0.073499,0.0515 c -0.064249,0.045 -0.2889298,0.0514 -1.7791783,0.0514 H 7.4267504 6.4964534 5.7218129 c -1.4896069,0 -1.7142125,-0.007 -1.7784034,-0.0514 l -0.073499,-0.0515 v -1.05353 c 0,0 -0.058249,-1.9267 0,-2.84669 z m 1.7849199,0.78279 c -0.3505457,0 -0.3635956,0.0125 -0.3635956,0.34708 0,0.12055 0.015417,0.24798 0.03425,0.28315 0.029916,0.0559 0.071416,0.0639 0.3293793,0.0639 0.3505541,0 0.3635956,-0.0124 0.3635956,-0.34707 0,-0.33462 -0.013,-0.34708 -0.3635956,-0.34708 z m 1.9186933,0 c -0.3507041,0 -0.3637289,0.0125 -0.3637289,0.34708 0,0.15517 0.00333,0.24056 0.04125,0.28806 0.00333,0.019 0.0075,0.032 0.012416,0.037 0.00667,0.007 0.053749,0.0122 0.1206652,0.0162 0.048583,0.005 0.1099487,0.006 0.1894144,0.006 0.00333,0 0.005,-1.3e-4 0.00875,-1.3e-4 0.0025,10e-6 0.005,1.3e-4 0.00833,1.3e-4 0.2476053,0 0.3087046,-0.01 0.324996,-0.0522 0.015167,-0.0396 0.021166,-0.14199 0.0205,-0.25133 4.25e-4,-0.0146 0.00167,-0.0289 0.00167,-0.0434 0,-0.12832 -0.0025,-0.20902 -0.02425,-0.26005 -0.005,-0.0237 -0.01075,-0.0409 -0.017083,-0.0473 -0.01025,-0.0103 -0.03825,-0.0188 -0.078499,-0.0254 -0.049166,-0.0118 -0.1207735,-0.0138 -0.2185306,-0.014 -0.00333,-2e-5 -0.00667,-2.6e-4 -0.010417,-2.6e-4 -0.00167,0 -0.0025,1.3e-4 -0.00417,1.3e-4 -0.00417,0 -0.00667,-1.3e-4 -0.010667,-1.3e-4 z m -1.065287,0.005 c -0.00417,1.4e-4 -0.0075,3e-4 -0.011833,4e-4 v 0.004 l -0.1970309,0.007 -0.00958,0.2949 c -0.005,0.16218 -0.00167,0.31464 0.0075,0.33881 0.00842,0.022 0.093657,0.0362 0.1994226,0.0422 v 4.5e-4 c 0.03,0.002 0.061499,0.002 0.093157,0.002 0.011666,1.6e-4 0.022833,1e-4 0.034583,6e-5 0.015667,-10e-5 0.030916,-4.3e-4 0.046333,-8.3e-4 0.1262818,-0.002 0.242297,-0.0157 0.2668801,-0.0403 0.058583,-0.0586 0.053083,-0.56913 -0.00667,-0.61872 -3.333e-4,-3e-4 -8.333e-4,-5e-4 -0.00167,-7.8e-4 l -5.833e-4,-0.0185 -0.068833,-0.002 h -6.66e-5 c -0.055333,-0.008 -0.1402233,-0.0103 -0.245847,-0.007 -0.037583,-8.3e-4 -0.074083,-0.002 -0.1057404,-0.002 z m 1.9491596,7e-5 c -0.1146653,0.002 -0.1888061,0.0119 -0.2110391,0.0303 -0.060666,0.0503 -0.065249,0.56024 -0.00583,0.6199 0.027833,0.0278 0.13529,0.0378 0.3388125,0.0314 l 0.2979964,-0.009 v -0.33054 -0.33054 l -0.2924464,-0.01 c -0.046833,-0.002 -0.1277651,-0.0398 -0.1277651,-0.002 z m -3.7896705,0.9201 c -0.3092213,0 -0.3350626,0.0281 -0.3350626,0.36359 0,0.19203 0.013583,0.27328 0.051999,0.31169 0.037333,0.0373 0.1169903,0.0519 0.2830883,0.0519 0.3477541,0 0.3590789,-0.0114 0.3590789,-0.3636 0,-0.35214 -0.011333,-0.36359 -0.3590789,-0.36359 z m 1.9183016,0 c -0.033583,0 -0.062416,6.1e-4 -0.089607,0.002 v 8.4e-4 c -0.2048392,0.0107 -0.2135558,0.067 -0.2135558,0.36049 0,0.24578 0.00958,0.30025 0.057833,0.32835 0.02,0.0117 0.081582,0.0217 0.1557148,0.028 v 0.006 c 0.02875,8.4e-4 0.059833,0.002 0.095682,8.4e-4 0.0075,-3e-5 0.0145,-5.9e-4 0.021916,-7.1e-4 0.0075,1.3e-4 0.0145,6.8e-4 0.021916,7.1e-4 0.3160545,0.002 0.3411292,-0.0254 0.3411292,-0.36263 0,-0.33555 -0.025833,-0.3636 -0.3350626,-0.3636 -0.01025,0 -0.0175,2.3e-4 -0.027166,2.7e-4 -0.010166,-4e-5 -0.02875,-0.0111 -0.02875,-2.7e-4 z m 1.0024711,0 c 0,0.0474 -0.087799,4.1e-4 -0.1231735,0.002 -0.2373554,3e-4 -0.2555302,0.0579 -0.2555302,0.36173 0,0.32017 0.025583,0.36056 0.2957464,0.35972 0.1128903,0.005 0.2418387,-2e-4 0.3169211,-0.0153 0.00833,-8.3e-4 0.018417,-0.002 0.02275,-0.003 0.005,-0.002 0.01,-0.004 0.014833,-0.007 0.00417,-0.002 0.0085,-0.003 0.011583,-0.005 0.055916,-0.0299 0.063916,-0.0714 0.063916,-0.32938 0,-0.14785 -0.0025,-0.23517 -0.030166,-0.28729 -0.00417,-0.0164 -0.00917,-0.0292 -0.01425,-0.0343 -0.00333,-0.003 -0.013,-0.007 -0.026833,-0.01 -0.049583,-0.0298 -0.1332984,-0.0325 -0.2758634,-0.0325 z m 0.9725798,0 c -0.3479124,0 -0.3592706,0.0114 -0.3592706,0.36359 0,0.35214 0.011333,0.3636 0.3592706,0.3636 0.166173,0 0.2458887,-0.0146 0.2832216,-0.0519 0.038416,-0.0384 0.051999,-0.11966 0.051999,-0.31168 0,-0.33555 -0.025833,-0.3636 -0.3351875,-0.3636 z m -2.8059825,0.002 c -0.0325,-0.002 -0.022166,-7.9e-4 -0.1195652,0.003 -0.097432,0.004 -0.2841882,0.0229 -0.2981963,0.0369 -0.036083,0.0362 -0.057999,0.39659 -0.032333,0.53313 0.01275,0.068 0.044583,0.12067 0.078249,0.12951 0.03125,0.008 0.1635563,0.0166 0.2940631,0.0188 0.3160794,0.005 0.3411291,-0.0213 0.3411291,-0.35979 0,-0.30731 -0.1231485,-0.37662 -0.2633301,-0.36179 -0.1401899,0.0148 0,0 0,0 z m -0.1002654,0.95677 c -0.3505457,0 -0.3635956,0.0124 -0.3635956,0.34706 0,0.12057 0.015417,0.248 0.03425,0.28316 0.029916,0.0559 0.071416,0.0639 0.3293793,0.0639 0.3505541,0 0.3635956,-0.0124 0.3635956,-0.34707 0,-0.33461 -0.013,-0.34706 -0.3635956,-0.34706 z m 1.9186933,0 c -0.3507041,0 -0.3637289,0.0124 -0.3637289,0.34706 0,0.33461 0.013,0.34707 0.3637289,0.34707 0.2580968,0 0.299588,-0.008 0.3295043,-0.0639 0.018833,-0.0352 0.03425,-0.16259 0.03425,-0.28316 0,-0.33461 -0.013083,-0.34706 -0.3637872,-0.34706 z m -1.065287,0.005 c -0.00417,1.3e-4 -0.0075,2.9e-4 -0.011833,3.8e-4 v 0.004 l -0.1970309,0.007 -0.00958,0.29491 c -0.005,0.16218 -0.00167,0.31464 0.0075,0.3388 0.00842,0.022 0.093657,0.0362 0.1994226,0.0422 v 4.6e-4 c 0.03,0.002 0.061499,0.002 0.093157,0.002 0.011666,1.7e-4 0.022833,10e-5 0.034583,7e-5 0.015667,-10e-5 0.030916,-4.3e-4 0.046333,-8.4e-4 0.1262818,-0.002 0.242297,-0.0157 0.2668801,-0.0402 0.058583,-0.0586 0.053083,-0.56913 -0.00667,-0.61873 -3.333e-4,-3e-4 -8.333e-4,-5e-4 -0.00167,-7.7e-4 l -5.833e-4,-0.0185 -0.068833,-0.002 h -6.66e-5 c -0.055333,-0.008 -0.1402233,-0.0103 -0.245847,-0.007 -0.037583,-8.4e-4 -0.074083,-0.002 -0.1057404,-0.002 z m -1.9181767,6e-5 c -0.1146652,0.002 -0.188806,0.0119 -0.2110391,0.0303 -0.045999,0.0962 -0.040166,0.53518 0.0025,0.63867 0.2125808,0.0269 0.3712622,0.0358 0.6284674,0.003 0.025916,-0.0383 0.033666,-0.45045 -0.0125,-0.63813 -0.063916,-0.0245 -0.2799299,-0.0325 -0.2799299,-0.0325 -0.046833,-0.002 -0.089541,-0.002 -0.1277568,-0.002 z"
       id="path826"
       inkscape:connector-curvature="0"
       sodipodi:nodetypes="cscsccccccccccccscccscccccscscccccccccccsccscccccscssssccccscsccscsccscscccccccccccccccccccccccccccccssccssscccccccccsscsscscscccscccsssscsccccscczcsscszcssscsscccccccccccccccccccccccccccccccccc" />
  </g>
</svg>
