<svg width="50" height="50" version="1.1" viewBox="0 0 13.229 13.229" xmlns="http://www.w3.org/2000/svg">
 <path d="m5.3521 3.3073c-0.70534 0-1.2041 0.32384-1.2041 1.0873 0 0.23289 0.033947 0.45694 0.067179 0.68937 0.033308 0.23181 0.066146 0.46415 0.066146 0.6966 0 0.29077-0.083083 0.61391-0.67231 0.61391v0.42323c0.5894 0 0.67231 0.35717 0.67231 0.61443 0 0.22475-0.032805 0.44794-0.066146 0.67231-0.033233 0.22438-0.067179 0.45563-0.067179 0.68007 0 0.83789 0.51506 1.1374 1.2041 1.1374h0.17415v-0.45631h-0.14934c-0.46491 0-0.65577-0.25787-0.65577-0.72243 0-0.19902 0.025269-0.39014 0.058394-0.5979 0.033233-0.19874 0.057878-0.40574 0.057878-0.62994 0.00865-0.53138-0.22424-0.81338-0.5979-0.90485v-0.016c0.37365-0.10016 0.60624-0.36611 0.5979-0.8971 0-0.22399-0.024645-0.42345-0.057878-0.63046-0.033125-0.19942-0.058394-0.39864-0.058394-0.58911 0-0.44819 0.16562-0.71365 0.65577-0.71365h0.14934v-0.45682zm2.3508 0v0.45682h0.14883c0.48163 8e-3 0.65577 0.26529 0.65577 0.71365 0 0.19047-0.033336 0.3897-0.057878 0.58911-0.033767 0.2073-0.066663 0.40661-0.066663 0.63046 0 0.53099 0.23252 0.79665 0.5979 0.8971v0.0155c-0.36538 0.0913-0.5979 0.37399-0.5979 0.90537 0 0.22438 0.032896 0.43137 0.066663 0.62994 0.0245 0.20793 0.057878 0.39905 0.057878 0.5979 0 0.46452-0.19901 0.71372-0.66353 0.72192h-0.14108v0.45682h0.17415c0.68062 0 1.2035-0.29951 1.2035-1.1374 2e-7 -0.22445-0.03343-0.45569-0.066663-0.68007-0.033058-0.22436-0.066663-0.44806-0.066663-0.67282 0-0.25743 0.083537-0.61392 0.67283-0.61392v-0.42323c-0.58929 0-0.67283-0.32317-0.67283-0.61391 0-0.23244 0.033388-0.4648 0.066663-0.6966 0.033233-0.23244 0.066663-0.45644 0.066663-0.68937 0-0.76346-0.5063-1.0873-1.2118-1.0873z"/>
</svg>
