<svg width="50" height="50" version="1.1" viewBox="0 0 13.229 13.229" xmlns="http://www.w3.org/2000/svg">
 <path d="m9.9178 4.6406h-6.6105v3.9479h6.6146v-3.0696h-4e-3v-0.8784zm-4.4198 3.8718h-2.1141v-0.89175h2.1141v0.89175zm0-0.96799h-2.1141v-0.89165h2.1141v0.89165zm0-0.96822h-2.1141v-0.89128h2.1141v0.89128zm0.038517-0.96785v-0.89128h2.1141v0.89128h-2.0761zm4.2957 2.8908h-0.83479v-2.5533h-0.57316v2.5533h-0.47748v-2.0245h-0.57319v2.0245h-0.42052v-1.5023h-0.57326v1.5023h-0.80545v-2.8143h4.2578v2.8142zm0.00907-2.9802h-0.00907v0.0894h-2.1051v-0.89128h2.1142v0.80187z"/>
</svg>
