<svg width="50" height="50" version="1.1" viewBox="0 0 13.229 13.229" xmlns="http://www.w3.org/2000/svg">
 <path d="m5.3345 3.3073-0.18276 0.79655c-0.047 0.21428-0.089029 0.41516-0.1202 0.60874h-0.0055c-0.025942-0.19072-0.0626-0.38662-0.10693-0.59559l-0.17496-0.80952h-0.33694l-0.19039 0.7966c-0.050017 0.22195-0.099931 0.4311-0.1283 0.61632h-0.00483c-0.028708-0.17492-0.0707-0.39965-0.11522-0.61379l-0.16721-0.79913h-0.34217l0.43103 1.7604h0.34745v-1.8e-4l0.20372-0.82806c0.052108-0.20102 0.0862-0.37079 0.11768-0.55885h0.00508c0.02075 0.19056 0.052125 0.35783 0.096483 0.55885l0.18306 0.82806h0.34499l0.47239-1.7604zm0.68758 0.87994c-0.12152 0-0.21969 0.0984-0.21969 0.21992-1.508e-4 0.1215 0.097923 0.21994 0.21969 0.21994h2.4159c0.12127 0 0.21981-0.0984 0.21981-0.21994 0-0.12148-0.098534-0.21992-0.21981-0.21992zm-2.4126 1.7594c-0.12149 0-0.22017 0.0984-0.22017 0.21992 0 0.12158 0.09868 0.21981 0.22017 0.21981h6.0103c0.12158 0 0.22017-0.0982 0.22017-0.21981 0-0.12145-0.098403-0.21992-0.22017-0.21992zm0 1.7469c-0.12149 0-0.22017 0.0984-0.22017 0.21998 0 0.12148 0.09868 0.21987 0.22017 0.21987h6.0103c0.12158 0 0.22017-0.0984 0.22017-0.21987 0-0.12158-0.098403-0.21998-0.22017-0.21998zm0 1.7885c-0.12149 0-0.22017 0.0986-0.22017 0.22016 0 0.12144 0.09868 0.21981 0.22017 0.21981h6.0103c0.12158 0 0.22017-0.0984 0.22017-0.21981 0-0.12157-0.098403-0.22016-0.22017-0.22016z"/>
</svg>
