<svg width="50" height="50" version="1.1" viewBox="0 0 13.229 13.229" xmlns="http://www.w3.org/2000/svg">
 <path d="m3.3073 4.0517v3.6339h1.4921v1.4919h5.1224v-3.6339h-1.492v-1.4919zm0.26267 0.26267h4.5972v1.2293h-3.3677v1.8793h-1.2295zm1.4921 1.4919h4.5971v3.1085h-4.5971zm0.74736 0.38313a0.1751 0.1751 0 0 0-0.1751 0.1751 0.1751 0.1751 0 0 0 0.1751 0.1751 0.1751 0.1751 0 0 0 0.1751-0.1751 0.1751 0.1751 0 0 0-0.1751-0.1751zm0.44398 0.10943v0.13133h2.6707v-0.13133zm-0.44398 0.52539a0.1751 0.1751 0 0 0-0.1751 0.1751 0.1751 0.1751 0 0 0 0.1751 0.1751 0.1751 0.1751 0 0 0 0.1751-0.1751 0.1751 0.1751 0 0 0-0.1751-0.1751zm0.44398 0.10938v0.13134h2.6707v-0.13134zm-0.44398 0.57378a0.17512 0.17512 0 0 0-0.1751 0.1751 0.17512 0.17512 0 0 0 0.1751 0.17515 0.17512 0.17512 0 0 0 0.17515-0.17515 0.17512 0.17512 0 0 0-0.17515-0.1751zm0.44398 0.10939v0.13133h2.6707v-0.13133zm-0.44398 0.53637c-0.09671 0-0.17505 0.07848-0.17505 0.17524 0 0.09657 0.07834 0.17491 0.17505 0.17491 0.096663 0 0.1751-0.07834 0.1751-0.17491 0-0.09676-0.078436-0.17524-0.1751-0.17524zm0.44398 0.10952v0.13134h2.6707v-0.13134z"/>
</svg>
