<svg width="50" height="50" version="1.1" viewBox="0 0 13.229 13.229" xmlns="http://www.w3.org/2000/svg">
 <path d="m9.3348 4.359h-5.4404c-0.32377 0-0.5871 0.26333-0.5871 0.5871v3.3369c0 0.32376 0.26334 0.5871 0.5871 0.5871h5.4404c0.32376 0 0.5871-0.26334 0.5871-0.5871v-3.3369c0-0.32377-0.26334-0.5871-0.5871-0.5871zm-5.4404 0.47868h5.4404c0.01998 0 0.03902 5e-3 0.05552 0.0153l-2.8068 1.8911-2.7464-1.8901c0.01687-0.0105 0.03654-0.0164 0.05727-0.0164zm-0.10847 3.0908v-2.5284l1.8512 1.274zm5.5488 0.46297h-5.3786l2.1044-1.426 0.52003 0.35788 0.61679-0.41557 2.1832 1.4734c-0.01408 7e-3 -0.02974 0.0103-0.04577 0.0103zm0.10841-0.54555-1.8176-1.2266 1.8176-1.2247z"/>
</svg>
