<svg width="50" height="50" version="1.1" viewBox="0 0 13.229 13.229" xmlns="http://www.w3.org/2000/svg">
 <path d="m3.5623 3.3073a0.25501 0.25501 0 0 0-0.25504 0.25508v6.1045a0.25501 0.25501 0 0 0 0.25504 0.25504h6.1045a0.25501 0.25501 0 0 0 0.25509-0.25504v-6.1045a0.25501 0.25501 0 0 0-0.25509-0.25508zm0.25509 0.50992h5.5945v5.5945h-5.5945zm0.76461 1.339c-0.084164-2e-3 -0.17197 0.0179-0.25658 0.0639-0.35143 0.19127-0.33452 0.70697 0.028736 0.87612 0.068857 0.0321 0.12701 0.0438 0.21554 0.0437 0.28363-4.3e-4 0.48515-0.20143 0.48473-0.48328-4.33e-4 -0.2904-0.21993-0.49436-0.47242-0.50046zm3.1065 0.62905c-0.10163 3e-3 -0.20249 0.0545-0.23681 0.13665-0.02301 0.0551-0.036031 0.0624-0.14986 0.084-0.27768 0.0527-0.40312 0.19007-0.28313 0.31007 0.10421 0.10421 0.4631 0.17533 0.72114 0.14293 0.088214-0.0111 0.15315-0.0105 0.18477 2e-3 0.026811 0.0103 0.08228 0.0256 0.12331 0.0339 0.25871 0.0522 0.60328-0.0455 0.70893-0.20096 0.10072-0.14823 0.043886-0.30121-0.15165-0.40822-0.1666-0.0912-0.35921-0.11631-0.57143-0.0746-0.14198 0.0279-0.16497 0.0283-0.21241 4e-3 -0.040334-0.021-0.086675-0.0301-0.13287-0.0289zm-1.8294 0.95451c-0.22575 9e-3 -0.45506 0.26621-0.71093 0.79021-0.18518 0.37924-0.46955 1.1767-0.57029 1.5993l-0.012201 0.0512h2.6758l-0.011604-0.0725c-0.039844-0.24917-0.26212-0.90422-0.42352-1.248-0.24054-0.51244-0.59254-0.9962-0.79126-1.0875-0.051995-0.0239-0.10388-0.0349-0.15598-0.0327zm2.3299 0.94773c-0.095415-4.2e-4 -0.19289 0.0414-0.29438 0.12461-0.15913 0.1304-0.313 0.37874-0.45176 0.72915-0.071417 0.18036-0.18756 0.56094-0.18756 0.61456 0 0.0202 0.17339 0.0247 0.95117 0.0247 0.61401 0 0.95112-7e-3 0.95112-0.0184 0-0.0363-0.26336-0.67693-0.34742-0.84509-0.21126-0.42261-0.41127-0.62853-0.62118-0.6295z"/>
</svg>
