<svg width="50" height="50" version="1.1" viewBox="0 0 13.229 13.229" xmlns="http://www.w3.org/2000/svg">
 <path d="m3.3716 3.3073v1.097h0.23919v4.3781h-0.23919v1.1396h6.4825v-9e-3h0.0034v-1.0544h-0.0034v-0.076h-0.23531v-4.3781h0.23531v-0.0221h0.0034v-1.0743h-0.0034v-6.2e-4zm0.205 0.20531h6.0725v0.68665h-6.0725zm0.19334 0.11361v0.39788h0.91512v-0.39788h-0.45756zm2.3475 0v0.39788h0.91512v-0.39788h-0.45756zm1.1936 0v0.39788h0.91512v-0.39788h-0.45756zm-2.3674 0.0199-0.02424 0.37798h0.96361l-0.02424-0.37798h-0.45756zm3.6008 0.0199v0.35809h0.91512v-0.35809h-0.45756zm-2.7462 1.5722c0.05782-0.0357 2.1496 1.3015 2.1387 1.3672-5e-3 0.0302-0.43888 0.33077-0.96408 0.668-1.0723 0.68853-1.1535 0.73646-1.1886 0.70134-0.04246-0.0425-0.02883-2.7101 0.013989-2.7366zm-2.2172 3.7535h6.0636v0.72077h-6.0636zm0.18892 0.16498v0.39788h0.91512v-0.39788h-0.45756zm1.1936 0v0.39788h0.91512v-0.39788h-0.45756zm1.1538 0v0.39788h0.91512v-0.39788h-0.45756zm1.1936 0v0.39788h0.91512v-0.39788h-0.45756zm1.2334 0v0.39788h0.91512v-0.39788h-0.45756z"/>
</svg>
