<svg width="50" height="50" version="1.1" viewBox="0 0 13.229 13.229" xmlns="http://www.w3.org/2000/svg">
 <path d="m3.9869 9.1202c-0.18593-0.0404-0.45522-0.16927-0.5994-0.28685l-0.08018-0.0654 0.4349-0.432 0.14043 0.14786c0.23827 0.25087 0.52788 0.35068 0.8624 0.29722 0.47526-0.076 0.8582-0.41115 1.3815-1.2093 0.18697-0.28514 1.719-2.9068 1.7579-3.0081 0.022-0.0573-0.13017-0.079-0.5513-0.0786-0.38732 3.3e-4 -0.60051 0.0414-0.83322 0.16037-0.35748 0.18273-0.58105 0.52195-0.61177 0.92825l-0.01662 0.21973-0.30342 0.1509c-0.16688 0.083-0.31153 0.1509-0.32145 0.1509-0.0338 0 0.02236-0.30534 0.09858-0.53594 0.174-0.52647 0.57809-0.95895 1.0684-1.1435 0.27401-0.10313 0.58021-0.15853 1.1526-0.20853 0.28159-0.0246 0.64531-0.0691 0.80826-0.099 0.16295-0.0298 0.30072-0.0498 0.30615-0.0444 0.0054 5e-3 0.02122 0.27063 0.03509 0.58942 0.03045 0.69995 0.2183 2.96 0.27663 3.3282 0.09874 0.62322 0.25141 0.77663 0.72547 0.72903l0.20402-0.0205-0.01774 0.10933c-0.0098 0.0601-0.02159 0.11233-0.0263 0.11598-0.0047 4e-3 -0.3111 0.055-0.68087 0.11419-0.36977 0.0591-0.70562 0.11413-0.74632 0.12219l-0.074 0.0147-0.06496-0.79314c-0.03573-0.43623-0.07226-0.80496-0.08118-0.8194-9e-3 -0.0146-0.40591-0.0263-0.8918-0.0263h-0.87557l-0.10493 0.16808c-0.33241 0.53247-0.62248 0.89515-0.86644 1.0833-0.42568 0.32833-0.9829 0.4547-1.5049 0.3413zm4.2308-1.8488c0-0.0596-0.20706-2.4161-0.21281-2.4218-0.0071-7e-3 -1.3737 2.3678-1.39 2.4156-0.0062 0.0181 0.2845 0.0285 0.79655 0.0285 0.44346 0 0.80629-0.01 0.80629-0.0223z"/>
</svg>
