<svg width="50" height="50" version="1.1" viewBox="0 0 13.229 13.229" xmlns="http://www.w3.org/2000/svg">
 <path d="m3.5349 9.4953c-0.08655-0.0394-0.17636-0.14616-0.21079-0.25049-0.03511-0.10637-0.0135-0.31085 0.04793-0.45366 0.08019-0.1864 0.5129-0.56317 0.88912-0.77418l0.12552-0.0704 0.27827-1.1262c0.15305-0.61941 0.29504-1.2041 0.31554-1.2993l0.03727-0.17307-0.20899-0.21559c-0.35218-0.36331-0.49044-0.60816-0.49168-0.87075-1e-3 -0.22126 0.09849-0.37848 0.30796-0.48638 0.31025-0.15982 0.62635-0.0133 0.74679 0.3461 0.04634 0.13829 0.05091 0.19355 0.05291 0.63903l0.0022 0.48766 0.27602 0.25482c0.57901 0.53456 1.3136 1.1574 1.7945 1.5216l0.22278 0.16871 0.52853 1.7e-4c0.94623 3.4e-4 1.238 0.0537 1.4867 0.27212 0.23671 0.20783 0.24996 0.61639 0.02817 0.86835-0.12437 0.14129-0.25574 0.19928-0.45136 0.19924-0.09023-2e-5 -0.20712-0.0165-0.27378-0.0387-0.13858-0.0461-0.49363-0.26995-1.0342-0.6521l-0.39539-0.27953-0.12651 5e-3c-0.06958 3e-3 -0.28142 0.0201-0.47075 0.0389-0.82373 0.0818-1.5724 0.25794-2.1234 0.49961l-0.20235 0.0887-0.05052 0.19326c-0.14381 0.55019-0.37406 0.91195-0.67371 1.0586-0.14536 0.0711-0.33108 0.0923-0.42679 0.0487zm0.35587-0.42346c0.03993-0.0305 0.1077-0.10831 0.15062-0.17302 0.0756-0.11399 0.19419-0.36917 0.19419-0.41785 0-0.0411-0.20331 0.11259-0.38095 0.28792-0.14264 0.14079-0.17239 0.1828-0.18504 0.26133-0.0083 0.0515-0.0091 0.10319-0.0019 0.11496 0.01918 0.031 0.13698-8e-3 0.22303-0.0733zm5.5573-0.92868c0.06241-0.03 0.1176-0.14569 0.1176-0.24643 0-0.10996-0.08475-0.20185-0.23958-0.25979-0.14896-0.0557-0.54678-0.0932-0.88794-0.0836l-0.22786 6e-3 0.40563 0.26947c0.46944 0.31187 0.47738 0.31634 0.60099 0.33836 0.10104 0.018 0.15496 0.0123 0.23115-0.0244zm-3.6468-0.70306c0.3502-0.0789 0.75796-0.14714 1.0944-0.18306 0.13776-0.0147 0.24769-0.0339 0.2443-0.0426-0.0034-9e-3 -0.1211-0.1086-0.26158-0.22197-0.49899-0.4027-1.3185-1.1154-1.4641-1.2733-0.06215-0.0674-0.11272-0.0759-0.11272-0.019 0 0.0217-0.10993 0.48229-0.2443 1.0236s-0.2443 0.99159-0.2443 1.0006c0 9e-3 0.1574-0.0366 0.34979-0.10144 0.19238-0.0648 0.47971-0.14714 0.6385-0.18293zm-0.72812-2.8397c-0.01769-0.40952-0.08013-0.55791-0.22276-0.52939-0.20872 0.0417-0.23219 0.23618-0.05954 0.49322 0.06674 0.0994 0.26319 0.31934 0.28519 0.31934 0.0051 0 0.0038-0.12743-0.0029-0.28317z"/>
</svg>
