<svg width="50" height="50" version="1.1" viewBox="0 0 13.229 13.229" xmlns="http://www.w3.org/2000/svg">
 <path d="m4.3986 3.3073v1.1021h1.1031v-1.1021zm1.1031 1.1021v1.1031h1.1031v-1.1031zm0 1.1031h-1.1031v1.1021h1.1031zm0 1.1021v1.1021h-1.0949v1.1031h1.1031v1.1021h1.1036v-1.1021h-1.1031v-1.1031h1.0944v-1.1021zm1.1149-3.3073v1.1021h1.1031v-1.1021zm1.1031 1.1021v1.1031h1.1031v-1.1031zm0 1.1031h-1.1031v1.1021h1.1031zm0 1.1021v1.1021h-1.0949v1.1031h1.1026v1.1021h1.1036v-1.1021h-1.1031v-1.1031h1.0949v-1.1021zm1.1149-3.3073v1.1021h1.0872v-1.1021zm-5.5274 1.1021v1.1031h1.08v-1.1031zm5.5274 1.1031v1.1021h1.0872v-1.1021zm-5.5274 1.1021v1.1021h1.08v-1.1021zm5.5351 1.1021v1.1031h1.0795v-1.1031zm-5.5351 1.1031v1.1021h1.0882v-1.1021z"/>
</svg>
