<svg width="50" height="50" version="1.1" viewBox="0 0 13.229 13.229" xmlns="http://www.w3.org/2000/svg">
 <path d="m6.8441 3.3074c-0.02303-2.3e-4 -0.04611-2e-4 -0.06921 1.3e-4l0.0014 2.8327 6.92e-4 6.9e-4 2.0046-2.0048c-0.54618-0.54637-1.2235-0.82166-1.9375-0.82873zm-0.42195 0.94369c-1.5661 0-2.8353 1.2695-2.8353 2.8355 0 1.5659 1.2692 2.8352 2.8353 2.8352 1.5659 0 2.8353-1.2694 2.8353-2.8352h-2.8353zm2.3593 0.35664-1.9748 2.0314v8.8e-4h2.8356c0-0.79759-0.33084-1.5171-0.86082-2.0323z"/>
</svg>
