<svg width="50" height="50" version="1.1" viewBox="0 0 13.229 13.229" xmlns="http://www.w3.org/2000/svg">
 <path d="m4.1073 3.3073v5.4016h1.0746v1.2129h3.9399v-4.6361l-0.76523-0.76567h-0.30923v-0.44716l-0.76533-0.76562zm0.19547 0.19527h2.841v0.7735h0.70819v4.2377h-3.5492v-1e-4zm3.0365 0.13827 0.43962 0.43986h-0.43962zm-2.06 0.17579-0.81528 1.5743h0.20572l0.2499-0.49744h0.5442l0.063 0.49744h0.19865l-0.21732-1.5743zm0.0748 0.17748h5e-3c7e-3 0.0934 0.0187 0.20796 0.028 0.28965l0.0607 0.45548h-0.45775l0.23598-0.45785c0.0467-0.0958 0.0863-0.19391 0.12836-0.28728zm0.64069 0.63301v0.2661h1.7187v-0.2661zm2.0524 0.0883h0.171v0.7735h0.70819v4.2376h-3.5492v-1.0176h2.67v-0.31198h0.62087v-0.2661h-0.62087v-0.59868h0.62087v-0.2661h-0.62087v-0.65148h0.62087v-0.2661h-0.62087zm0.36671 0.13827 0.43971 0.43986h-0.43971zm-2.4191 0.44972v0.26611h1.7187v-0.26611zm-1.3801 0.65423v0.26615h3.0988v-0.26615zm0 0.64312v0.2661h1.3358v-0.2661zm1.9927 0.19957c-0.23485 5e-3 -0.37711 0.64268-0.37711 0.64268l-0.0196 0.0831h1.4002c-0.3771-0.73726-0.57664-0.0498-0.57664-0.0498l-0.0539-0.17192c-0.14033-0.37815-0.26624-0.50644-0.37299-0.50407zm-1.9927 0.46573v0.2661h1.3358v-0.2661zm0 0.67927v0.2661h3.0627v-0.2661zm3.4327 0.25112c1e-3 0.0229 1e-3 0.0458 0 0.0687zm-2.4419 0.79666v0.26615h3.0628v-0.26615z"/>
</svg>
