<svg width="50" height="50" version="1.1" viewBox="0 0 13.229 13.229" xmlns="http://www.w3.org/2000/svg">
 <path d="m9.8862 11.646c-0.012473 0.009088-3.2554-2.1843-3.2709-2.1843-0.015427 4.5e-6 -3.2574 2.1947-3.2699 2.1857-0.012474-0.009088 1.0714-3.7711 1.0666-3.7857-0.0047713-0.014768-3.0939-2.4198-3.0892-2.4345 0.00477-0.014768 3.9176-0.14639 3.9301-0.15545 0.012474-0.00909 1.3453-3.6902 1.3607-3.6903 0.015427-3.4e-6 1.3498 3.6806 1.3623 3.6897 0.01247 0.00909 3.9253 0.13909 3.9301 0.15377 0.0048 0.014768-3.0833 2.4211-3.0881 2.4358-0.0048 0.014768 1.0807 3.7762 1.0682 3.7853z"/>
</svg>
