<svg width="50" height="50" version="1.1" viewBox="0 0 13.229 13.229" xmlns="http://www.w3.org/2000/svg">
 <path transform="matrix(.89017 -.077491 .077491 .89017 .25141 1.5767)" d="m8.6517 7.6692c-0.0062462 0.014748 0.85888 3.9867 0.84516 3.995-0.013722 0.008259-3.1188-2.6154-3.1347-2.6168-0.015956-0.0013832-3.5262 2.0488-3.5383 2.0383-0.012096-0.010498 1.5237-3.7743 1.52-3.79-0.0036151-0.015603-3.0382-2.7205-3.0319-2.7352 0.00625-0.014748 4.0605 0.28275 4.0742 0.27449 0.013722-0.00826 1.6485-3.7302 1.6644-3.7288 0.015956 0.00138 0.98584 3.9491 0.99793 3.9596 0.012096 0.010498 4.057 0.41512 4.0606 0.43073 0.0036 0.015603-3.4512 2.1579-3.4574 2.1727z" fill="#b3b3b3" stroke="#000" stroke-linejoin="round" stroke-opacity=".92544" stroke-width=".32572" style="paint-order:markers fill stroke"/>
</svg>
