<?xml version="1.0" encoding="UTF-8" standalone="no"?>
<svg
   xmlns:dc="http://purl.org/dc/elements/1.1/"
   xmlns:cc="http://creativecommons.org/ns#"
   xmlns:rdf="http://www.w3.org/1999/02/22-rdf-syntax-ns#"
   xmlns:svg="http://www.w3.org/2000/svg"
   xmlns="http://www.w3.org/2000/svg"
   xmlns:sodipodi="http://sodipodi.sourceforge.net/DTD/sodipodi-0.dtd"
   xmlns:inkscape="http://www.inkscape.org/namespaces/inkscape"
   width="50"
   height="50"
   version="1.1"
   viewBox="0 0 13.229 13.229"
   id="svg817"
   sodipodi:docname="star.svg">
  <metadata
     id="metadata823">
    <rdf:RDF>
      <cc:Work
         rdf:about="">
        <dc:format>image/svg+xml</dc:format>
        <dc:type
           rdf:resource="http://purl.org/dc/dcmitype/StillImage" />
      </cc:Work>
    </rdf:RDF>
  </metadata>
  <defs
     id="defs821" />
  <sodipodi:namedview
     pagecolor="#ffffff"
     bordercolor="#666666"
     borderopacity="1"
     objecttolerance="10"
     gridtolerance="10"
     guidetolerance="10"
     inkscape:pageopacity="0"
     inkscape:pageshadow="2"
     inkscape:window-width="640"
     inkscape:window-height="480"
     id="namedview819"
     showgrid="false" />
  <path
     d="m 8.6517,7.6692 c -0.00625,0.014748 0.85888,3.9867 0.84516,3.995 -0.013722,0.0083 -3.1188,-2.6154 -3.1347,-2.6168 -0.015956,-0.00138 -3.5262,2.0488 -3.5383,2.0383 -0.012096,-0.0105 1.5237,-3.7743 1.52,-3.79 -0.00362,-0.015603 -3.0382,-2.7205 -3.0319,-2.7352 0.00625,-0.014748 4.0605,0.28275 4.0742,0.27449 0.013722,-0.00826 1.6485,-3.7302 1.6644,-3.7288 0.015956,0.00138 0.98584,3.9491 0.99793,3.9596 0.012096,0.010498 4.057,0.41512 4.0606,0.43073 0.0036,0.015603 -3.4512,2.1579 -3.4574,2.1727 z"
     inkscape:connector-curvature="0" />
  <path
     sodipodi:type="star"
     style="opacity:1;fill:#000000;fill-opacity:1;fill-rule:nonzero;stroke:#666666;stroke-width:1.05832005;stroke-linecap:round;stroke-linejoin:round;stroke-miterlimit:4;stroke-dasharray:none;stroke-dashoffset:0;stroke-opacity:0"
     id="path825"
     sodipodi:sides="5"
     sodipodi:cx="-12.60071"
     sodipodi:cy="8.6913481"
     sodipodi:r1="9.9518471"
     sodipodi:r2="4.4101214"
     sodipodi:arg1="0.81764505"
     sodipodi:arg2="1.4459636"
     inkscape:flatsided="false"
     inkscape:rounded="0.014"
     inkscape:randomized="0"
     d="m -5.7942324,15.951591 c -0.070373,0.06597 -6.1616666,-2.896449 -6.2573786,-2.884439 -0.09571,0.01201 -5.266191,4.387621 -5.350683,4.341079 -0.08449,-0.04654 0.850627,-6.755145 0.809628,-6.842461 -0.041,-0.08732 -5.800218,-3.6525955 -5.782063,-3.7473346 0.01815,-0.094739 6.687383,-1.2784602 6.757756,-1.344435 0.07037,-0.065975 1.681459,-6.6450487 1.777171,-6.6570592 0.09571,-0.01201 3.282403,5.9650133 3.366895,6.0115548 0.08449,0.046542 6.8394162,-0.4542705 6.8804155,-0.3669543 0.040999,0.087316 -4.6587465,4.9650411 -4.6769005,5.0597802 -0.018154,0.094739 2.5455327,6.3642941 2.4751596,6.4302691 z"
     inkscape:transform-center-x="0.095763885"
     inkscape:transform-center-y="-0.10032121" />
</svg>
