<svg width="50" height="50" version="1.1" viewBox="0 0 13.229 13.229" xmlns="http://www.w3.org/2000/svg">
 <path d="m3.5388 3.6744c-0.12465 0-0.22546 0.10094-0.22546 0.22547s0.10081 0.22559 0.22546 0.22559h3.7554c0.12431 0 0.22578-0.10106 0.22578-0.22559s-0.10147-0.22547-0.22578-0.22547zm-6e-3 1.8039c-0.12456 0-0.22547 0.10088-0.22547 0.22547 0 0.12456 0.10091 0.22559 0.22547 0.22559h6.1633c0.12462 0 0.22577-0.10106 0.22577-0.22559 0-0.12462-0.10118-0.22547-0.22577-0.22547zm0 1.7912c-0.12456 0-0.22547 0.10087-0.22547 0.22565 0 0.12456 0.10091 0.22559 0.22547 0.22559h6.1633c0.12462 0 0.22577-0.10106 0.22577-0.22559 0-0.12481-0.10118-0.22565-0.22577-0.22565zm0 1.8342c-0.12456 0-0.22547 0.101-0.22547 0.22559 0 0.12465 0.10091 0.22547 0.22547 0.22547h6.1633c0.12462 0 0.22577-0.10084 0.22577-0.22547 0-0.12462-0.10118-0.22559-0.22577-0.22559z"/>
</svg>
