<svg version="1.1" viewBox="0 0 100 100" xmlns="http://www.w3.org/2000/svg">
 <path d="m9.1647 5.5907a3.5527 3.5533 0 0 0-2.4745 6.1023l38.284 38.294-38.321 38.33a3.5537 3.5545 0 1 0 5.0254 5.0266l38.321-38.33 38.321 38.33a3.5537 3.5545 0 1 0 5.0254-5.0266l-38.321-38.33 38.284-38.294a3.5527 3.5533 0 0 0-2.4745-6.1023 3.5527 3.5533 0 0 0-2.5508 1.0756l-38.284 38.294-38.284-38.294a3.5527 3.5533 0 0 0-2.5508-1.0756z" color="#000000" color-rendering="auto" dominant-baseline="auto" fill-rule="evenodd" image-rendering="auto" shape-rendering="auto" solid-color="#000000" stroke-width="1.1842" style="font-feature-settings:normal;font-variant-alternates:normal;font-variant-caps:normal;font-variant-ligatures:normal;font-variant-numeric:normal;font-variant-position:normal;isolation:auto;mix-blend-mode:normal;shape-padding:0;text-decoration-color:#000000;text-decoration-line:none;text-decoration-style:solid;text-indent:0;text-orientation:mixed;text-transform:none;white-space:normal"/>
</svg>
