<svg version="1.1" viewBox="0 0 13.229 13.229" xmlns="http://www.w3.org/2000/svg">
 <path d="m0.97835 11.887c-0.1584-0.072108-0.32276-0.26749-0.38577-0.45843-0.064256-0.19467-0.024707-0.5689 0.087719-0.83026 0.14676-0.34114 0.93868-1.0307 1.6272-1.4169l0.22972-0.12884 0.50927-2.0611c0.2801-1.1336 0.53996-2.2037 0.57748-2.3779l0.068209-0.31674-0.38248-0.39456c-0.64454-0.66491-0.89757-1.113-0.89984-1.5936-0.0018302-0.40494 0.18025-0.69267 0.56361-0.89014 0.5678-0.29249 1.1463-0.024341 1.3667 0.63341 0.084809 0.25309 0.093172 0.35422 0.096833 1.1695l0.00403 0.89249 0.50515 0.46636c1.0597 0.97832 2.4041 2.1182 3.2842 2.7847l0.40772 0.30876 0.96728 3.111e-4c1.7317 6.222e-4 2.2657 0.098278 2.7209 0.49802 0.43321 0.38036 0.45746 1.1281 0.05155 1.5892-0.22761 0.25858-0.46804 0.36471-0.82605 0.36464-0.16513-3.7e-5 -0.37906-0.0302-0.50106-0.07083-0.25362-0.084366-0.90341-0.49404-1.8927-1.1934l-0.72362-0.51158-0.23153 0.0091507c-0.12734 0.0054904-0.51504 0.036786-0.86154 0.071192-1.5075 0.14971-2.8777 0.47207-3.8861 0.91436l-0.37033 0.16233-0.092459 0.35369c-0.26319 1.0069-0.68458 1.669-1.233 1.9374-0.26603 0.13012-0.60592 0.16892-0.78108 0.089127zm0.65129-0.77499c0.073077-0.05582 0.19711-0.19822 0.27566-0.31665 0.13836-0.20862 0.35539-0.67563 0.35539-0.76472 0-0.075219-0.37209 0.20606-0.69719 0.52693-0.26105 0.25766-0.3155 0.33455-0.33865 0.47827-0.01519 0.09425-0.016654 0.18885-0.00348 0.21039 0.035102 0.05673 0.25069-0.01464 0.40818-0.13415zm10.171-1.6996c0.11422-0.054904 0.21522-0.26663 0.21522-0.451 0-0.20124-0.1551-0.36941-0.43846-0.47545-0.27262-0.10194-1.0007-0.17057-1.6251-0.153l-0.41702 0.010981 0.74236 0.49317c0.85914 0.57077 0.87367 0.57895 1.0999 0.61925 0.18492 0.032942 0.2836 0.022511 0.42304-0.044655zm-6.6742-1.2867c0.64091-0.1444 1.3872-0.26929 2.0029-0.33503 0.25212-0.026903 0.45331-0.062042 0.4471-0.077964-0.0062225-0.016471-0.22163-0.19875-0.47873-0.40624-0.91322-0.737-2.413-2.0413-2.6795-2.3303-0.11374-0.12335-0.20629-0.13891-0.20629-0.034773 0 0.039714-0.20119 0.88266-0.4471 1.8733s-0.4471 1.8147-0.4471 1.8312c0 0.016471 0.28806-0.066983 0.64016-0.18565 0.35208-0.11859 0.87794-0.26929 1.1685-0.33479zm-1.3326-5.197c-0.032375-0.74948-0.14665-1.0211-0.40768-0.96886-0.38199 0.076317-0.42494 0.43224-0.10897 0.90266 0.12214 0.18192 0.48167 0.58444 0.52194 0.58444 0.00933 0 0.00695-0.23321-0.00531-0.51824z" stroke-width="1.8301"/>
</svg>
