<svg version="1.1" viewBox="0 0 100 100" xmlns="http://www.w3.org/2000/svg">
 <path d="m20.854 20.302a2.5358 2.5362 0 0 0-1.7662 4.3556l27.326 27.333-27.352 27.358a2.5365 2.5371 0 1 0 3.5869 3.5878l27.352-27.358 27.352 27.358a2.5365 2.5371 0 1 0 3.5869-3.5878l-27.352-27.358 27.326-27.333a2.5358 2.5362 0 0 0-1.7662-4.3556 2.5358 2.5362 0 0 0-1.8207 0.76776l-27.326 27.333-27.326-27.333a2.5358 2.5362 0 0 0-1.8207-0.76776z" color="#000000" color-rendering="auto" dominant-baseline="auto" fill-rule="evenodd" image-rendering="auto" shape-rendering="auto" solid-color="#000000" stroke-width=".84527" style="font-feature-settings:normal;font-variant-alternates:normal;font-variant-caps:normal;font-variant-ligatures:normal;font-variant-numeric:normal;font-variant-position:normal;isolation:auto;mix-blend-mode:normal;shape-padding:0;text-decoration-color:#000000;text-decoration-line:none;text-decoration-style:solid;text-indent:0;text-orientation:mixed;text-transform:none;white-space:normal"/>
</svg>
