<svg version="1.1" viewBox="0 0 100 100" xmlns="http://www.w3.org/2000/svg">
 <path d="m50 0.45508c-0.0014 0-2.461 0.8883-2.7246 1.1445s-0.35597 0.38301-0.43555 0.48633c-0.15914 0.20664-0.2092 0.29498-0.26172 0.37695-0.10504 0.16394-0.16258 0.26495-0.23047 0.38281-0.13578 0.23573-0.28365 0.50355-0.4707 0.84766-0.37411 0.68821-0.88959 1.6548-1.5371 2.8828-1.295 2.4561-3.1137 5.9453-5.2852 10.131-4.3429 8.3711-10.093 19.526-15.826 30.693-5.7334 11.167-11.449 22.343-15.725 30.758-2.1376 4.2075-3.9142 7.7236-5.1582 10.213-0.62199 1.2446-1.1082 2.2291-1.4512 2.9375-0.17148 0.35422-0.30627 0.63271-0.41992 0.88281-0.056824 0.12505-0.10596 0.23175-0.17969 0.41602-0.036865 0.09213-0.078635 0.18505-0.1582 0.44336-0.039784 0.12915-0.092694 0.2831-0.1582 0.66797-0.065509 0.38487 0.48367 3.2232 0.48437 3.2246 7.038e-4 0.0014 1.9111 1.9534 2.2402 2.082 0.32915 0.12864 0.47439 0.1519 0.59375 0.17773 0.23871 0.05166 0.33249 0.060152 0.42188 0.070313 0.17877 0.02033 0.28544 0.026023 0.41016 0.033203 0.24943 0.01437 0.53014 0.023093 0.88867 0.033203 0.71706 0.02023 1.7188 0.04006 2.9883 0.05664 2.539 0.03315 6.1323 0.060072 10.441 0.082032 8.6182 0.04392 20.086 0.066406 31.553 0.066406 11.467 0 22.931-0.022486 31.549-0.066406 4.3091-0.02196 7.9063-0.048882 10.445-0.082032 1.2695-0.01657 2.2712-0.0364 2.9883-0.05664 0.35853-0.01012 0.63924-0.018833 0.88867-0.033203 0.12471-0.0072 0.23138-0.012884 0.41016-0.033203 0.08939-0.01016 0.18316-0.018643 0.42188-0.070313 0.11936-0.02583 0.2646-0.049094 0.59375-0.17773 0.32915-0.12864 2.2395-2.0807 2.2402-2.082 7.1e-4 -0.0014 0.54988-2.8397 0.48437-3.2246-0.065496-0.38487-0.12036-0.53882-0.16015-0.66797-0.0796-0.25831-0.11939-0.35123-0.15625-0.44336-0.0737-0.18426-0.12286-0.29097-0.17969-0.41602-0.11364-0.2501-0.24845-0.52859-0.41992-0.88281-0.34295-0.70845-0.82918-1.6929-1.4512-2.9375-1.244-2.4893-3.0206-6.0054-5.1582-10.213-4.2753-8.415-9.9912-19.591-15.725-30.758-5.7334-11.167-11.483-22.322-15.826-30.693-2.1715-4.1856-3.9901-7.6748-5.2852-10.131-0.64752-1.2281-1.163-2.1946-1.5371-2.8828-0.18706-0.34411-0.33492-0.61193-0.4707-0.84766-0.067891-0.11786-0.12543-0.21887-0.23047-0.38281-0.052519-0.081968-0.10453-0.17031-0.26367-0.37695-0.079572-0.10332-0.16995-0.23009-0.43359-0.48633-0.26364-0.25623-2.7232-1.1445-2.7246-1.1445zm0 13.746c1.1218 2.1424 2.2119 4.2238 3.7637 7.2148 4.3324 8.3508 10.078 19.5 15.807 30.658 5.7287 11.158 11.442 22.326 15.707 30.721 1.528 3.0075 2.5866 5.1134 3.6758 7.2773-2.2107 0.02125-4.3603 0.04095-7.4395 0.05664-8.5973 0.04381-20.056 0.066407-31.514 0.066406-11.457 0-22.916-0.022596-31.514-0.066406-3.0792-0.01569-5.2287-0.03539-7.4395-0.05664 1.0892-2.164 2.1478-4.2698 3.6758-7.2773 4.2649-8.3946 9.9745-19.563 15.703-30.721 5.7287-11.158 11.478-22.307 15.811-30.658 1.5517-2.991 2.6419-5.0724 3.7637-7.2148zm-4.7637 23.568 1.1953 32.342h7.2598l1.1094-32.342h-9.5645zm-0.12305 35.855v7.7812h9.7734v-7.7812h-9.7734z" color="#000000" color-rendering="auto" dominant-baseline="auto" fill-opacity=".99061" image-rendering="auto" shape-rendering="auto" solid-color="#000000" style="font-feature-settings:normal;font-variant-alternates:normal;font-variant-caps:normal;font-variant-ligatures:normal;font-variant-numeric:normal;font-variant-position:normal;isolation:auto;mix-blend-mode:normal;shape-padding:0;text-decoration-color:#000000;text-decoration-line:none;text-decoration-style:solid;text-indent:0;text-orientation:mixed;text-transform:none;white-space:normal"/>
</svg>
